{"title":"Pocket Listing 2015 Movies DVDRip x264 New Source +Sample ☻rDX☻","uid":12817897,"size":739969397,"categoryP":"video","categoryS":"movies","magnet":"?xt=urn:btih:3937c06fe52858fa5dda8ff68a8620213565dee9&amp;dn=Pocket+Listing+2015+Movies+DVDRip+x264+New+Source+%2BSample+%E2%98%BBrDX%E2%98%BB&amp;tr=udp%3A%2F%2Ftracker.leechers-paradise.org%3A6969&amp;tr=udp%3A%2F%2Fzer0day.ch%3A1337&amp;tr=udp%3A%2F%2Fopen.demonii.com%3A1337&amp;tr=udp%3A%2F%2Ftracker.coppersurfer.tk%3A6969&amp;tr=udp%3A%2F%2Fexodus.desync.com%3A6969","seeders":0,"leechers":1,"uploader":"basicssom","files":2,"time":1448256534,"description":"----------------------------------------------------------------\r\nPocket Listing 2015 English Movies DVDRip x264 AAC New Source with Sample ~ ☻rDX☻\r\n\r\nSCREEN SHOTS &amp; POSTER:\r\n  \nhttp://doctorhosts.com/2015/11/PocketListing/11.html  \nhttp://doctorhosts.com/2015/11/PocketListing/1.html  \nhttp://doctorhosts.com/2015/11/PocketListing/2.html  \nhttp://doctorhosts.com/2015/11/PocketListing/3.html  \nhttp://doctorhosts.com/2015/11/PocketListing/4.html  \nhttp://doctorhosts.com/2015/11/PocketListing/5.html  \nhttp://doctorhosts.com/2015/11/PocketListing/6.html  \nhttp://doctorhosts.com/2015/11/PocketListing/7.html  \nhttp://doctorhosts.com/2015/11/PocketListing/8.html  \nhttp://doctorhosts.com/2015/11/PocketListing/9.html  \nhttp://doctorhosts.com/2015/11/PocketListing/10.html\r\n\r\nFormat                                   : Matroska\r\nFormat version                           : Version 4 / Version 2\r\nFile size                                : 699 MiB\r\nDuration                                 : 1h 27mn\r\nOverall bit rate                         : 1 115 Kbps\r\nMovie name                               : Pocket Listing 2015 English Movies DVDRip x264 AAC New Source ~ rDX ~\r\n\r\nVideo\r\nID                                       : 1\r\nFormat                                   : AVC\r\nFormat/Info                              : Advanced Video Codec\r\nFormat profile                           :   \r\nFormat settings, CABAC                   : Yes\r\nFormat settings, ReFrames                : 4 frames\r\nCodec ID                                 : V_MPEG4/ISO/AVC\r\nDuration                                 : 1h 27mn\r\nBit rate                                 : 901 Kbps\r\nNominal bit rate                         : 700 Kbps\r\nWidth                                    : 720 pixels\r\nHeight                                   : 400 pixels\r\nDisplay aspect ratio                     : 16:9\r\nFrame rate mode                          : Constant\r\nFrame rate                               : 25.000 fps\r\nColor space                              : YUV\r\nChroma subsampling                       : 4:2:0\r\nBit depth                                : 8 bits\r\nScan type                                : Progressive\r\nBits/(Pixel*Frame)                       : 0.125\r\nStream size                              : 564 MiB (81%)\r\nTitle                                    : ~ rDX ~\r\nWriting library                          : x264\r\nLanguage                                 : English\r\nDefault                                  : Yes\r\nForced                                   : No\r\n\r\nAudio\r\nID                                       : 2\r\nFormat                                   : AC-3\r\nFormat/Info                              : Audio Coding 3\r\nMode extension                           : CM (complete main)\r\nFormat settings, Endianness              : Big\r\nCodec ID                                 : A_AC3\r\nDuration                                 : 1h 27mn\r\nBit rate mode                            : Constant\r\nBit rate                                 : 192 Kbps\r\nChannel(s)                               : 2 channels\r\nChannel positions                        : Front: L R\r\nSampling rate                            : 48.0 KHz\r\nBit depth                                : 16 bits\r\nCompression mode                         : Lossy\r\nDelay relative to video                  : -40ms\r\nStream size                              : 120 MiB (17%)\r\nTitle                                    : ~ rDX ~\r\nLanguage                                 : English\r\nDefault                                  : Yes\r\nForced                                   : No\r\n\r\nIMDB                                      \nhttp://www.imdb.com/title/tt3417854/","torrent":{"xt":"urn:btih:3937c06fe52858fa5dda8ff68a8620213565dee9","amp;dn":"Pocket+Listing+2015+Movies+DVDRip+x264+New+Source+%2BSample+%E2%98%BBrDX%E2%98%BB","amp;tr":["udp%3A%2F%2Ftracker.leechers-paradise.org%3A6969","udp%3A%2F%2Fzer0day.ch%3A1337","udp%3A%2F%2Fopen.demonii.com%3A1337","udp%3A%2F%2Ftracker.coppersurfer.tk%3A6969","udp%3A%2F%2Fexodus.desync.com%3A6969"],"infoHash":"3937c06fe52858fa5dda8ff68a8620213565dee9","infoHashBuffer":{"type":"Buffer","data":[57,55,192,111,229,40,88,250,93,218,143,246,138,134,32,33,53,101,222,233]},"announce":[],"urlList":[]}}